<svg width="353" height="55" viewBox="0 0 353 55" fill="none" xmlns="http://www.w3.org/2000/svg">
<g clip-path="url(#clip0_0_1)">
<path d="M84.8817 55V49.359H353V55H84.8817Z" fill="white"/>
<mask id="mask0_0_1" style="mask-type:luminance" maskUnits="userSpaceOnUse" x="92" y="3" width="261" height="37">
<path d="M352.551 3.2906H92.9656V39.4872H352.551V3.2906Z" fill="white"/>
</mask>
<g mask="url(#mask0_0_1)">
<path d="M93.2351 4.23265H112.561C120.268 4.23265 126.078 9.63111 126.078 17.6978C126.078 25.7644 120.268 30.9147 112.561 30.9147H100.645V38.547H93.2351V4.23265ZM100.645 11.3065V23.8409H112.265C116.059 23.8409 118.667 21.6691 118.667 17.6978C118.667 13.7265 116.059 11.3065 112.265 11.3065H100.645ZM130.866 4.23265H150.192C157.898 4.23265 163.708 9.63111 163.708 17.6978C163.708 22.9721 161.218 26.9434 157.365 29.1152L162.404 38.547H154.341L150.488 30.9147H138.276V38.547H130.866V4.23265ZM138.276 11.3065V23.8409H149.895C153.689 23.8409 156.298 21.6691 156.298 17.6978C156.298 13.7265 153.689 11.3065 149.895 11.3065H138.276ZM175.432 21.4209C175.432 28.4947 180.234 32.7762 186.399 32.7762C192.565 32.7762 197.367 28.4947 197.367 21.4209C197.367 14.347 192.565 10.0655 186.399 10.0655C180.234 10.0655 175.432 14.347 175.432 21.4209ZM204.777 21.4209C204.777 32.2178 196.359 39.4157 186.399 39.4157C176.44 39.4157 168.022 32.2178 168.022 21.4209C168.022 10.6239 176.44 3.42598 186.399 3.42598C196.359 3.42598 204.777 10.6239 204.777 21.4209ZM231.889 4.23265H239.121V23.4685C239.121 32.1557 234.141 39.4157 222.996 39.4157C216.001 39.4157 210.606 35.8788 207.939 29.7357L214.282 26.5091C215.764 30.2942 219.321 32.528 222.996 32.528C229.754 32.528 231.889 28.6188 231.889 22.848V4.23265ZM245.03 4.23265H274.79V11.2444H252.441V17.5737H272.538V24.5855H252.441V31.4111H275.62V38.547H245.03V4.23265ZM314.902 12.6096L309.151 16.0844C306.661 12.3614 303.401 10.3137 298.184 10.3137C291.604 10.3137 287.335 14.6573 287.335 21.4209C287.335 28.0603 291.781 32.528 298.184 32.528C303.401 32.528 306.661 30.4803 309.151 26.7573L314.902 30.2321C311.522 36.2511 305.95 39.4157 298.302 39.4157C287.81 39.4157 279.984 32.528 279.984 21.4209C279.984 10.3137 287.987 3.42598 298.302 3.42598C305.95 3.42598 311.522 6.5906 314.902 12.6096ZM318.353 4.23265H352.441V11.1824H339.102V38.547H331.692V11.1824H318.353V4.23265Z" fill="#8A8A8A"/>
</g>
<mask id="mask1_0_1" style="mask-type:luminance" maskUnits="userSpaceOnUse" x="0" y="0" width="86" height="43">
<path d="M85.7799 0H0V42.7778H85.7799V0Z" fill="white"/>
</mask>
<g mask="url(#mask1_0_1)">
<path d="M0.449097 1.4112H25.0711C31.9874 1.4112 36.8979 5.61001 36.8979 12.1254C36.8979 15.0211 35.9296 17.4825 33.9239 18.9303C37.4512 20.8126 39.5261 24.0703 39.5261 28.993C39.5261 35.8703 34.2006 41.4446 26.9385 41.4446H0.449097V1.4112ZM9.09445 9.51924V16.8309H25.3477C27.2151 16.8309 28.46 15.0211 28.46 13.2113C28.46 11.4739 27.5609 9.51924 24.6561 9.51924H9.09445ZM9.09445 24.7218V33.2642H26.6618C29.4283 33.2642 31.0882 31.4544 31.0882 28.993C31.0882 26.3868 29.3592 24.7218 26.8693 24.7218H9.09445ZM65.4801 21.4641H79.0432L85.8953 41.4446L82.0972 42.4581L80.0762 37.6839C76.4106 40.3625 71.7169 42.4581 65.9764 42.4581C53.9421 42.4581 44.6053 34.4225 44.6053 21.4641C44.6053 8.50573 53.9421 0.470093 65.9764 0.470093C74.8292 0.470093 80.8464 3.80018 85.2037 10.6051L78.3565 14.6592C75.3134 10.5327 72.1319 8.72291 65.8381 8.72291C58.161 8.72291 53.1813 13.5733 53.1813 21.4641C53.1813 29.355 58.161 34.2053 65.8381 34.2053C71.3019 34.2053 74.4834 33.1194 77.5958 30.5856L76.124 27.7351H65.57L65.4801 21.4641Z" fill="white"/>
</g>
<path d="M72.3066 23.9736L78.142 21.6239L90.7201 52.6505L84.8848 55L72.3066 23.9736Z" fill="white"/>
</g>
<defs>
<clipPath id="clip0_0_1">
<rect width="353" height="55" fill="white"/>
</clipPath>
</defs>
</svg>
